<?xml version="1.0" encoding="UTF-8" standalone="no"?>
<svg
   xmlns:sketch="http://www.bohemiancoding.com/sketch/ns"
   xmlns:dc="http://purl.org/dc/elements/1.1/"
   xmlns:cc="http://creativecommons.org/ns#"
   xmlns:rdf="http://www.w3.org/1999/02/22-rdf-syntax-ns#"
   xmlns:svg="http://www.w3.org/2000/svg"
   xmlns="http://www.w3.org/2000/svg"
   xmlns:sodipodi="http://sodipodi.sourceforge.net/DTD/sodipodi-0.dtd"
   xmlns:inkscape="http://www.inkscape.org/namespaces/inkscape"
   width="612px"
   height="612px"
   viewBox="0 0 612 612"
   version="1.1"
   id="svg11"
   sodipodi:docname="profile.svg"
   inkscape:version="0.92.3 (2405546, 2018-03-11)">
  <metadata
     id="metadata15">
    <rdf:RDF>
      <cc:Work
         rdf:about="">
        <dc:format>image/svg+xml</dc:format>
        <dc:type
           rdf:resource="http://purl.org/dc/dcmitype/StillImage" />
      </cc:Work>
    </rdf:RDF>
  </metadata>
  <sodipodi:namedview
     pagecolor="#ffffff"
     bordercolor="#666666"
     borderopacity="1"
     objecttolerance="10"
     gridtolerance="10"
     guidetolerance="10"
     inkscape:pageopacity="0"
     inkscape:pageshadow="2"
     inkscape:window-width="1920"
     inkscape:window-height="1028"
     id="namedview13"
     showgrid="false"
     inkscape:zoom="0.38562092"
     inkscape:cx="-33.71186"
     inkscape:cy="306"
     inkscape:window-x="0"
     inkscape:window-y="28"
     inkscape:window-maximized="1"
     inkscape:current-layer="svg11" />
  <!-- Generator: Sketch 3.3.2 (12043) - http://www.bohemiancoding.com/sketch -->
  <title
     id="title2">user-icon</title>
  <desc
     id="desc4">Created with Sketch.</desc>
  <defs
     id="defs6" />
  <g
     id="Page-1"
     stroke="none"
     stroke-width="1"
     fill="none"
     fill-rule="evenodd"
     sketch:type="MSPage"
     style="fill:#cccccc">
    <g
       id="Artboard-1"
       sketch:type="MSArtboardGroup"
       fill="#2A2A5F"
       style="fill:#cccccc">
      <path
         d="M306,0 C137.018536,0 0,136.991654 0,305.986558 C0,474.981464 137.005096,611.973118 306,611.973118 C474.994904,611.973118 612,474.981464 612,305.986558 C612,136.991654 475.008345,0 306,0 L306,0 L306,0 Z M306,91.4935429 C361.90152,91.4935429 407.211455,136.81692 407.211455,192.704999 C407.211455,248.606519 361.90152,293.916454 306,293.916454 C250.111921,293.916454 204.801985,248.606519 204.801985,192.704999 C204.801985,136.81692 250.111921,91.4935429 306,91.4935429 L306,91.4935429 L306,91.4935429 Z M305.932794,531.971711 C250.165685,531.971711 199.089519,511.662215 159.693666,478.046033 C150.096723,469.860405 144.558991,457.870948 144.558991,445.249758 C144.558991,388.582096 190.433453,343.218396 247.127997,343.218396 L364.912325,343.218396 C421.60687,343.218396 467.320039,388.582096 467.320039,445.249758 C467.320039,457.870948 461.795748,469.846965 452.185364,478.032593 C412.802952,511.662215 361.713345,531.971711 305.932794,531.971711 L305.932794,531.971711 L305.932794,531.971711 Z"
         id="user-icon"
         sketch:type="MSShapeGroup"
         style="fill:#cccccc" />
    </g>
  </g>
</svg>
