<svg xmlns="http://www.w3.org/2000/svg" viewBox="0 0 400 400"><path stroke="none" fill="#000000" fill-rule="evenodd" d="M169.000 22.836 C 75.523 44.444,26.682 145.943,68.832 231.000 C 129.151 352.722,308.222 334.374,342.103 203.000 C 369.019 98.633,273.077 -1.222,169.000 22.836 M232.467 35.864 C 308.606 55.337,351.944 134.282,327.782 209.490 L 325.696 215.980 293.348 167.039 C 253.317 106.475,257.169 108.684,239.262 136.022 C 232.806 145.878,226.860 153.531,226.049 153.030 C 225.237 152.529,214.008 135.892,201.094 116.059 C 183.866 89.603,176.572 80.000,173.701 80.000 C 170.772 80.000,158.155 97.621,123.520 150.083 C 89.269 201.962,76.812 219.379,75.559 217.140 C 74.628 215.477,72.096 207.196,69.933 198.738 C 45.164 101.890,135.739 11.125,232.467 35.864 M184.030 115.044 C 194.383 130.386,194.541 131.513,187.448 139.399 L 183.492 143.799 176.282 138.899 C 165.836 131.802,161.043 132.509,154.707 142.085 C 149.819 149.470,142.257 152.469,143.443 146.552 C 143.949 144.026,172.047 100.000,173.153 100.000 C 173.552 100.000,178.446 106.770,184.030 115.044 M317.446 229.465 C 318.841 233.065,301.652 256.245,290.082 266.366 C 228.453 320.277,134.793 309.234,89.400 242.703 L 83.799 234.495 108.157 197.748 C 121.554 177.536,132.860 160.614,133.283 160.142 C 133.705 159.669,137.219 160.794,141.093 162.642 C 151.360 167.538,153.414 166.948,160.346 157.114 L 166.610 148.227 175.165 154.114 C 186.086 161.628,186.320 161.598,194.863 151.618 C 199.194 146.558,202.732 143.982,203.791 145.118 C 204.755 146.153,217.866 165.900,232.925 189.000 C 262.643 234.585,264.574 236.904,270.276 233.852 C 276.200 230.682,275.041 227.877,255.812 198.825 C 245.808 183.711,237.187 170.208,236.653 168.817 C 236.120 167.427,240.339 159.389,246.030 150.955 L 256.377 135.622 286.434 181.311 C 302.965 206.440,316.921 228.109,317.446 229.465 M146.000 330.000 C 142.705 333.295,142.000 336.667,142.000 349.131 C 142.000 369.447,143.571 372.000,156.070 372.000 L 166.000 372.000 166.000 360.000 C 166.000 348.017,165.991 348.000,160.038 348.000 C 154.097 348.000,154.081 348.032,155.347 357.270 C 156.368 364.719,156.066 366.355,153.809 365.603 C 150.048 364.349,149.764 335.745,153.500 334.500 C 154.967 334.011,156.000 335.389,156.000 337.833 C 156.000 340.667,157.280 342.000,160.000 342.000 C 166.486 342.000,165.560 330.494,158.870 327.950 C 151.764 325.249,150.559 325.441,146.000 330.000 M220.931 328.803 C 213.916 333.933,214.132 359.552,221.286 370.839 C 227.202 380.172,238.000 384.152,238.000 377.000 C 238.000 375.350,236.585 374.000,234.855 374.000 C 232.248 374.000,232.419 373.099,235.855 368.730 C 249.048 351.958,236.216 317.627,220.931 328.803 M244.000 350.000 C 244.000 370.450,244.274 372.000,247.885 372.000 C 251.022 372.000,251.893 370.363,252.410 363.500 L 253.051 355.000 255.842 363.500 C 258.070 370.285,259.578 372.000,263.317 372.000 C 268.844 372.000,268.858 371.925,265.026 362.755 C 262.933 357.744,262.637 354.547,264.026 351.951 C 270.672 339.533,265.169 328.000,252.600 328.000 L 244.000 328.000 244.000 350.000 M230.739 338.500 C 233.351 348.247,231.432 366.000,227.767 366.000 C 226.795 366.000,226.000 358.800,226.000 350.000 C 226.000 334.576,228.235 329.154,230.739 338.500 M257.000 342.000 C 257.000 345.667,255.875 349.042,254.500 349.500 C 252.767 350.078,252.000 347.778,252.000 342.000 C 252.000 336.222,252.767 333.922,254.500 334.500 C 255.875 334.958,257.000 338.333,257.000 342.000 M169.996 341.009 C 167.174 348.433,167.518 364.577,170.588 368.775 C 174.948 374.737,186.833 372.454,187.633 365.500 C 188.332 359.427,183.356 357.583,181.228 363.127 C 179.672 367.182,176.000 364.902,176.000 359.882 C 176.000 356.887,177.395 356.000,182.110 356.000 C 192.763 356.000,190.269 337.270,179.496 336.379 C 172.970 335.839,171.733 336.442,169.996 341.009 M194.070 339.869 C 185.312 356.234,198.232 380.968,209.600 369.600 C 212.084 367.116,212.954 344.812,210.786 339.164 C 208.975 334.445,196.696 334.963,194.070 339.869 M182.000 347.118 C 182.000 348.703,180.650 350.000,179.000 350.000 C 175.988 350.000,174.889 345.778,177.279 343.388 C 179.145 341.521,182.000 343.777,182.000 347.118 M204.000 354.118 C 204.000 361.687,203.249 365.772,202.000 365.000 C 200.900 364.320,200.000 358.867,200.000 352.882 C 200.000 346.897,200.900 342.000,202.000 342.000 C 203.113 342.000,204.000 347.373,204.000 354.118 "/></svg>