<?xml version="1.0" encoding="UTF-8" standalone="no"?>
<!-- Created with Inkscape (http://www.inkscape.org/) -->

<svg
   xmlns:dc="http://purl.org/dc/elements/1.1/"
   xmlns:cc="http://creativecommons.org/ns#"
   xmlns:rdf="http://www.w3.org/1999/02/22-rdf-syntax-ns#"
   xmlns:svg="http://www.w3.org/2000/svg"
   xmlns="http://www.w3.org/2000/svg"
   xmlns:sodipodi="http://sodipodi.sourceforge.net/DTD/sodipodi-0.dtd"
   xmlns:inkscape="http://www.inkscape.org/namespaces/inkscape"
   width="78.583641mm"
   height="78.727768mm"
   viewBox="0 0 78.583641 78.727768"
   version="1.1"
   id="svg4600"
   inkscape:version="0.92.3 (2405546, 2018-03-11)"
   sodipodi:docname="icon_white.svg">
  <defs
     id="defs4594">
    <clipPath
       clipPathUnits="userSpaceOnUse"
       id="clipPath4570">
      <rect
         style="opacity:1;vector-effect:none;fill:#000000;fill-opacity:1;stroke:none;stroke-width:1;stroke-linecap:butt;stroke-linejoin:miter;stroke-miterlimit:4;stroke-dasharray:none;stroke-dashoffset:0;stroke-opacity:1"
         id="rect4572"
         width="330.50848"
         height="302.54236"
         x="33.898304"
         y="14.406779" />
    </clipPath>
  </defs>
  <sodipodi:namedview
     id="base"
     pagecolor="#ffffff"
     bordercolor="#666666"
     borderopacity="1.0"
     inkscape:pageopacity="0.0"
     inkscape:pageshadow="2"
     inkscape:zoom="2.868932"
     inkscape:cx="172.07244"
     inkscape:cy="154.28477"
     inkscape:document-units="mm"
     inkscape:current-layer="layer1"
     showgrid="false"
     inkscape:window-width="1920"
     inkscape:window-height="1028"
     inkscape:window-x="0"
     inkscape:window-y="28"
     inkscape:window-maximized="1" />
  <metadata
     id="metadata4597">
    <rdf:RDF>
      <cc:Work
         rdf:about="">
        <dc:format>image/svg+xml</dc:format>
        <dc:type
           rdf:resource="http://purl.org/dc/dcmitype/StillImage" />
        <dc:title></dc:title>
      </cc:Work>
    </rdf:RDF>
  </metadata>
  <g
     inkscape:label="Layer 1"
     inkscape:groupmode="layer"
     id="layer1"
     transform="translate(-0.50694656,-0.18941706)">
    <path
       style="fill:#ffffff;fill-rule:evenodd;stroke:none;stroke-width:1.44638884;stroke-miterlimit:4;stroke-dasharray:none"
       d="M 39.221846,0.19512459 C 25.075653,0.42208126 11.434803,8.8804256 4.9869005,21.481937 -0.94517552,32.558081 -0.99811521,46.503681 4.8997877,57.605841 10.165311,68.149641 20.428384,76.044206 32.052696,78.163172 46.455237,81.071232 62.406606,75.43634 71.196993,63.525118 79.276677,52.832626 81.472399,37.883162 76.297993,25.44995 70.744616,11.36606 56.745806,0.78187305 41.487569,0.22446318 40.732937,0.18934186 39.977147,0.18286565 39.221846,0.19512459 Z m 0.824757,4.36820891 c 12.34272,0.023071 24.56308,7.2839285 30.408477,18.2567665 4.836261,8.720317 5.662861,19.388539 2.401406,28.747598 -5.190685,-7.645508 -10.003837,-15.555479 -15.431778,-23.0353 -0.943329,-1.259347 -2.665195,-3.136582 -4.313787,-1.853101 -2.477635,2.455748 -3.797205,5.830964 -6.111772,8.430492 -0.726305,0.55549 -1.286563,-1.695024 -1.932771,-2.151904 C 41.381622,27.719815 38.262533,22.006797 34.13275,17.072131 33.554104,16.207681 32.291922,15.977068 31.694657,16.960509 27.028621,22.61006 23.268744,28.946019 19.134357,34.983183 15.176167,40.800305 11.518578,46.853818 7.1080444,52.344395 4.2458928,44.421075 3.9017905,35.692015 6.9199423,27.802741 11.898263,14.199022 25.523298,4.3428773 40.046603,4.5633335 Z M 32.803116,23.087268 c 1.499211,2.336385 3.554346,4.461518 4.407484,7.132381 -0.09684,1.179428 -1.259829,1.879608 -1.897041,2.763655 -1.775957,-1.130835 -4.126952,-3.353909 -6.332432,-1.879989 -1.41542,0.900009 -2.07841,3.267578 -3.676261,3.510896 2.209168,-4.033705 4.789874,-7.883826 7.364926,-11.70161 z m 29.389421,20.809064 c 2.715567,4.208404 5.580915,8.367323 8.128185,12.658143 -1.618136,3.498172 -4.315412,6.487916 -7.073468,9.161197 C 53.838948,74.15075 39.833145,76.931323 28.024598,72.679588 20.347477,70.063816 13.885079,64.55793 9.6587931,57.67327 13.912964,51.305655 18.099376,44.831142 22.415122,38.543171 c 1.796417,0.480364 3.988448,2.407711 5.767088,0.806669 1.160817,-1.084738 1.923664,-2.512372 2.880445,-3.764629 1.707491,0.834827 3.151211,2.878598 5.219835,2.723867 1.832681,-0.680471 2.550556,-2.816365 4.205946,-3.772382 5.106355,7.30938 9.584364,15.053847 14.910718,22.206397 0.709586,1.060588 2.156558,2.11844 3.37757,1.137399 1.601631,-0.75229 0.781823,-2.709923 0.07751,-3.810619 -2.740779,-4.776769 -6.216809,-9.228069 -8.837702,-13.993463 1.137073,-2.763187 3.062319,-5.105247 4.66018,-7.604702 2.505273,3.808206 5.010547,7.616415 7.51582,11.424624 z"
       id="path2"
       inkscape:connector-curvature="0" />
  </g>
</svg>
