<?xml version="1.0" encoding="UTF-8" standalone="no"?>
<!-- Svg Vector Icons : http://www.onlinewebfonts.com/icon -->

<svg
   xmlns:dc="http://purl.org/dc/elements/1.1/"
   xmlns:cc="http://creativecommons.org/ns#"
   xmlns:rdf="http://www.w3.org/1999/02/22-rdf-syntax-ns#"
   xmlns:svg="http://www.w3.org/2000/svg"
   xmlns="http://www.w3.org/2000/svg"
   xmlns:sodipodi="http://sodipodi.sourceforge.net/DTD/sodipodi-0.dtd"
   xmlns:inkscape="http://www.inkscape.org/namespaces/inkscape"
   version="1.1"
   x="0px"
   y="0px"
   viewBox="0 0 1000 1000"
   enable-background="new 0 0 1000 1000"
   xml:space="preserve"
   id="svg10"
   sodipodi:docname="icon_white.svg"
   inkscape:version="0.92.3 (2405546, 2018-03-11)"><defs
   id="defs14" /><sodipodi:namedview
   pagecolor="#ffffff"
   bordercolor="#666666"
   borderopacity="1"
   objecttolerance="10"
   gridtolerance="10"
   guidetolerance="10"
   inkscape:pageopacity="0"
   inkscape:pageshadow="2"
   inkscape:window-width="722"
   inkscape:window-height="480"
   id="namedview12"
   showgrid="false"
   inkscape:zoom="0.236"
   inkscape:cx="500"
   inkscape:cy="500"
   inkscape:window-x="0"
   inkscape:window-y="28"
   inkscape:window-maximized="0"
   inkscape:current-layer="svg10" />
<metadata
   id="metadata2"> Svg Vector Icons : http://www.onlinewebfonts.com/icon <rdf:RDF><cc:Work
     rdf:about=""><dc:format>image/svg+xml</dc:format><dc:type
       rdf:resource="http://purl.org/dc/dcmitype/StillImage" /><dc:title></dc:title></cc:Work></rdf:RDF></metadata>
<g
   id="g8"
   style="fill:#ffffff"><g
     transform="translate(0.000000,511.000000) scale(0.100000,-0.100000)"
     id="g6"
     style="fill:#ffffff"><path
       d="M4559.8,4967.4c-237.6-86.7-388.5-215.1-488-420.6l-89.9-183l-9.6-1242.5c-6.4-687.1-16.1-1245.7-19.3-1245.7c-6.4,0-67.4,22.5-134.8,51.4c-157.3,67.4-433.4,45-613.2-44.9c-166.9-86.7-372.4-321.1-420.6-481.6c-22.5-70.6-38.5-324.3-38.5-574.7V376.2l-163.7-22.5c-305-41.7-526.5-205.5-606.8-455.9c-28.9-83.5-41.7-430.2-44.9-1117.3c-3.2-1078.8,12.8-1232.9,183-1656.7c475.2-1178.3,1932.8-2045.2,3185-1897.5c1117.3,131.6,2183.2,899,2562.1,1839.7c183,462.3,192.6,545.8,205.5,2302c9.6,1136.6,3.2,1663.1-22.5,1762.6c-86.7,343.5-362.8,581.1-715.9,606.8c-170.2,12.8-221.6,3.2-353.2-67.4c-83.5-45-160.5-83.5-167-83.5c-6.4,0-41.7,61-73.8,138.1c-83.5,189.4-308.2,385.3-500.9,439.9c-150.9,41.7-356.4,22.5-539.4-48.2c-51.4-19.3-54.6,64.2-64.2,1130.1c-9.7,1126.9-9.7,1152.6-83.5,1300.3C5362.5,4916.1,4935.4,5099.1,4559.8,4967.4z M4996.4,4556.5c51.4-28.9,125.2-96.3,157.3-154.1c61-99.5,64.2-176.6,64.2-2276.3V-50.8h208.7h208.7v738.5c0,828.3,16.1,915,199.1,1027.4c199,122,455.9,61,561.9-138c51.4-93.1,57.8-183,48.2-863.7l-12.9-764.1h211.9h211.9l3.2,282.6c3.3,154.1,12.9,420.6,25.7,594c19.2,305,22.5,321.1,125.2,411c118.8,105.9,301.8,125.2,455.9,45c192.6-99.5,192.6-96.3,192.6-1692c-3.2-1614.9-22.4-1929.6-138-2269.9c-256.9-732-1030.6-1380.6-1952.1-1631c-308.2-83.5-870.1-77-1200.8,16.1c-899,253.6-1637.4,886.1-1939.2,1669.5c-80.3,211.9-83.5,224.7-93.1,1242.5c-6.4,565.1,0,1075.6,9.6,1133.3c16.1,83.5,45,118.8,128.4,154.1c61,25.7,147.7,44.9,192.6,44.9c80.3,0,80.3-3.2,80.3-272.9v-272.9h208.7h208.7v915c0,995.3,6.4,1030.6,179.8,1168.7c102.7,80.3,295.4,89.9,430.2,19.3c176.6-89.9,192.6-170.2,192.6-899V-50.8h208.7h208.7V2110c0,2029.1,3.2,2164,57.8,2266.7C4550.2,4575.7,4797.4,4656,4996.4,4556.5z"
       id="path4"
       style="fill:#ffffff" /></g></g>
</svg>