<?xml version="1.0" encoding="iso-8859-1"?>
<!-- Generator: Adobe Illustrator 19.0.0, SVG Export Plug-In . SVG Version: 6.00 Build 0)  -->
<svg xmlns="http://www.w3.org/2000/svg" xmlns:xlink="http://www.w3.org/1999/xlink" version="1.1" id="Layer_1" x="0px" y="0px" viewBox="0 0 512 512" style="enable-background:new 0 0 512 512;" xml:space="preserve" width="512px" height="512px">
<g>
	<g>
		<path d="M461.096,369.378h-46.281l-27.054-111.748H341.48l-27.054-111.748H197.572l-27.054,111.748h-46.281L97.184,369.378H50.903    L16.375,512h146.669h39.242h107.428h39.242h146.669L461.096,369.378z M221.865,176.756h68.27l19.579,80.873h-38.806h-29.816    h-38.806L221.865,176.756z M263.433,288.504l-7.434,30.703l-7.433-30.703H263.433z M55.617,481.125l19.579-80.872H89.71h53.756    l19.578,80.872H55.617z M182.665,430.955l-7.433-30.702h14.865L182.665,430.955z M197.572,369.378h-29.815H128.95l19.579-80.873    h14.514h53.756l19.579,80.873H197.572z M202.286,481.125l19.579-80.872h14.514h39.242h14.514l19.579,80.872H202.286z     M329.334,430.955l-7.433-30.702h14.865L329.334,430.955z M314.426,369.378h-38.806l19.579-80.873h53.756h14.514l19.579,80.873    h-38.807H314.426z M348.955,481.125l19.578-80.872h53.756h14.514l19.579,80.872H348.955z" fill="#FFFFFF"/>
	</g>
</g>
<g>
	<g>
		<rect x="240.558" width="30.875" height="86.039" fill="#FFFFFF"/>
	</g>
</g>
<g>
	<g>
		
			<rect x="133.165" y="44.477" transform="matrix(0.7071 -0.7071 0.7071 0.7071 -18.3443 130.7044)" width="30.875" height="86.038" fill="#FFFFFF"/>
	</g>
</g>
<g>
	<g>
		<rect x="61.101" y="179.456" width="86.039" height="30.875" fill="#FFFFFF"/>
	</g>
</g>
<g>
	<g>
		<rect x="364.861" y="179.456" width="86.039" height="30.875" fill="#FFFFFF"/>
	</g>
</g>
<g>
	<g>
		<rect x="320.38" y="72.067" transform="matrix(0.7071 -0.7071 0.7071 0.7071 44.5618 282.5914)" width="86.038" height="30.875" fill="#FFFFFF"/>
	</g>
</g>
<g>
</g>
<g>
</g>
<g>
</g>
<g>
</g>
<g>
</g>
<g>
</g>
<g>
</g>
<g>
</g>
<g>
</g>
<g>
</g>
<g>
</g>
<g>
</g>
<g>
</g>
<g>
</g>
<g>
</g>
</svg>
